<svg xmlns="http://www.w3.org/2000/svg" height="167.81" width="348.27" xmlns:xlink="http://www.w3.org/1999/xlink"><defs><linearGradient id="a"><stop stop-color="#fff" offset="0"/><stop stop-color="#b3b3b3" offset="1"/></linearGradient><linearGradient id="c" y2="65.095" xlink:href="#a" gradientUnits="userSpaceOnUse" x2="18.435" gradientTransform="translate(-81.83 -39.266) scale(1.8929)" y1="70.777" x1="23.486"/><linearGradient id="d" y2="65.095" xlink:href="#a" gradientUnits="userSpaceOnUse" x2="18.435" gradientTransform="translate(-81.83 -88.96) scale(1.8929)" y1="70.777" x1="23.486"/><linearGradient id="e" y2="65.095" xlink:href="#a" gradientUnits="userSpaceOnUse" x2="18.435" gradientTransform="translate(-81.83 -139.81) scale(1.8929)" y1="70.777" x1="23.486"/><linearGradient id="b" y2="213.16" gradientUnits="userSpaceOnUse" x2="125.67" gradientTransform="matrix(1.9384 0 0 1.7903 -4.306 -39.277)" y1="25.529" x1="50.257"><stop stop-color="#f9f9f9" offset="0"/><stop stop-color="#666" offset="1"/></linearGradient></defs><path stroke="url(#b)" stroke-width="1.304" fill="#ece9d8" d="M-81.841-39.277h346.97v166.5h-346.97z" transform="translate(82.493 39.929)"/><g stroke="#1c5180" stroke-width="2.007"><path fill="url(#c)" d="M-49.361 82.72h23.499v23.499h-23.499z" transform="translate(82.493 39.929)"/><path fill="url(#d)" d="M-49.361 33.026h23.499v23.499h-23.499z" transform="translate(82.493 39.929)"/><path fill="url(#e)" d="M-49.361-17.825h23.499V5.674h-23.499z" transform="translate(82.493 39.929)"/></g><path fill="#75c374" d="M38.428 78.23h12.907v12.907H38.428z"/><path d="M38.906 33.533l4.063 5.02 8.366-9.561" stroke="#21a121" stroke-width="3.597" fill="none"/><text font-size="21.295" y="1.364" x="-11.204" font-family="Sans" word-spacing="0" letter-spacing="0" transform="translate(82.143 39.579)"><tspan x="-11.204" y="1.364">Checked</tspan><tspan x="-11.204" y="51.834">Tristate / Indeterminate</tspan><tspan x="-11.204" y="102.304">Unchecked</tspan></text></svg>